<svg width="36" height="37" viewBox="0 0 36 37" fill="none" xmlns="http://www.w3.org/2000/svg">
<g opacity="0.5">
<path d="M23.4288 21.9992L23.1834 22.3437L23.4825 22.6428L29.2071 28.3674C29.5976 28.7579 29.5976 29.3911 29.2071 29.7816C28.8166 30.172 28.1834 30.172 27.7929 29.7816L22.0683 24.057L21.7692 23.7579L21.4247 24.0032C20.0354 24.9927 18.3364 25.5745 16.5 25.5745C11.8056 25.5745 8 21.7689 8 17.0745C8 12.38 11.8056 8.57446 16.5 8.57446C21.1944 8.57446 25 12.38 25 17.0745C25 18.9108 24.4182 20.6099 23.4288 21.9992ZM16.5 10.5745C12.9101 10.5745 10 13.4846 10 17.0745C10 20.6643 12.9101 23.5745 16.5 23.5745C20.0898 23.5745 23 20.6643 23 17.0745C23 13.4846 20.0898 10.5745 16.5 10.5745Z" fill="#5B49FE" stroke="#5B49FE"/>
</g>
</svg>
