<?xml version="1.0" encoding="utf-8"?>
<!-- Generator: Adobe Illustrator 25.0.0, SVG Export Plug-In . SVG Version: 6.00 Build 0)  -->
<svg version="1.1" id="bold" xmlns="http://www.w3.org/2000/svg" xmlns:xlink="http://www.w3.org/1999/xlink" x="0px" y="0px"
	 viewBox="0 0 512 512" style="enable-background:new 0 0 512 512;" xml:space="preserve">
<style type="text/css">
	.st0{fill:url(#SVGID_1_);}
</style>
<radialGradient id="SVGID_1_" cx="261.5419" cy="258" r="235.4404" gradientTransform="matrix(0.9942 0 0 -1 -4.025 514)" gradientUnits="userSpaceOnUse">
	<stop  offset="0" style="stop-color:#9589FF"/>
	<stop  offset="1" style="stop-color:#4F3BFF"/>
</radialGradient>
<path class="st0" d="M275,2.7c-2.3-0.8-5.1,1.2-5.1,4.3c12.5,79.9-3.9,166.8-100.2,200.3h-1.6c-16.8-23-21-61.2-22.2-76.8
	c0-2.7-3.1-4.7-5.8-2.7C76.2,166.3,38.4,237.7,41.6,312.9c5.1,113.8,100.9,201.5,213.9,196.4c127.4,0,215.1-100.5,215.1-214.3
	C470.6,146.9,367,47.9,275,2.7z M262.1,263.4c7.8-37,30.8-47.5,46.8-42.1c21,7.4,26.5,36.6,21.4,62c-7.8,37-30.8,47.9-47.2,42.1
	C262.9,317.9,257.1,288.7,262.1,263.4z M204.8,221.3c7.4-2.7,15.2-1.6,22.6,2.3c11.7,6.6,20.7,21.4,24.6,39.8
	c5.1,25.3-0.4,54.6-21.4,61.6c-16,5.5-39.4-5.5-47.2-42.1C178,257.9,183.8,228.7,204.8,221.3z M167,361.6
	c-18.3,10.1-41.3-1.9-52.6-20.7c-11.7-19.5-10.5-45.2,8.2-55.7c16.8-9.4,40.1-0.4,52.6,20.7C189.3,329.2,182.6,352.6,167,361.6z
	 M321.4,453.2c-21.8,10.5-43.6,16-65.5,16l0,0c-21.8,0-43.6-5.5-65.5-16l0,0c-10.5-5.1-17.1-16-17.1-27.7c0-44.4,37-81.1,82.6-81.1
	s82.6,36.2,82.6,81.1C338.5,437.2,331.9,448.1,321.4,453.2z M397.7,340.5c-11.7,19.1-34.3,30.8-52.6,20.7l0,0
	c-18.7-10.1-19.9-36.2-8.2-55.7c12.5-21,35.9-30,52.6-20.7C408.3,295.3,409.8,321.1,397.7,340.5z"/>
</svg>
