<?xml version="1.0" encoding="utf-8"?>
<!-- Generator: Adobe Illustrator 25.0.0, SVG Export Plug-In . SVG Version: 6.00 Build 0)  -->
<svg version="1.1" id="Capa_1" xmlns="http://www.w3.org/2000/svg" xmlns:xlink="http://www.w3.org/1999/xlink" x="0px" y="0px"
	 viewBox="0 0 491.7 153" style="enable-background:new 0 0 491.7 153;" xml:space="preserve">
<style type="text/css">
	.st0{enable-background:new    ;}
	.st1{fill:#FFFFFF;}
</style>
<g class="st0">
	<path class="st1" d="M141.9,124.1V55.4H154l1,4.9h0.4c2-1.8,4.2-3.2,6.6-4.4c2.5-1.2,5-1.8,7.6-1.8c3,0,5.8,0.6,8.2,1.8
		s4.5,2.9,6.2,5.2c1.7,2.2,3,4.9,3.9,8c0.9,3.1,1.4,6.6,1.4,10.5c0,4.3-0.6,8.1-1.8,11.5c-1.2,3.3-2.8,6.2-4.7,8.5
		c-2,2.3-4.2,4.1-6.8,5.3c-2.5,1.2-5.1,1.8-7.8,1.8c-2.2,0-4.2-0.5-6.3-1.4s-3.9-2.2-5.7-3.9l0.5,8v14.6H141.9z M164.7,94.6
		c2.6,0,4.7-1.2,6.6-3.5S174,85,174,79.9c0-9-2.9-13.5-8.7-13.5c-2.9,0-5.8,1.5-8.6,4.5v20.5c1.3,1.2,2.7,2.1,4,2.5
		C162.1,94.4,163.5,94.6,164.7,94.6z"/>
	<path class="st1" d="M217.3,106.7c-3.6,0-6.9-0.6-10-1.8c-3.1-1.2-5.8-2.9-8.1-5.2c-2.3-2.3-4.1-5-5.4-8.2
		c-1.3-3.2-1.9-6.9-1.9-11.1c0-4,0.7-7.7,2-11c1.3-3.3,3.1-6,5.3-8.3c2.2-2.3,4.7-4,7.5-5.2s5.8-1.8,8.8-1.8c3.6,0,6.7,0.6,9.3,1.8
		c2.7,1.2,4.9,2.9,6.7,5c1.8,2.2,3.1,4.7,4,7.6c0.9,2.9,1.3,6.1,1.3,9.5c0,1.3-0.1,2.6-0.2,3.8c-0.1,1.2-0.3,2.1-0.4,2.7h-30
		c0.7,3.6,2.2,6.3,4.5,8c2.3,1.7,5.2,2.6,8.5,2.6c3.6,0,7.2-1.1,10.8-3.3l4.9,9c-2.6,1.8-5.4,3.1-8.5,4.1
		C223.4,106.2,220.3,106.7,217.3,106.7z M206.1,75h18.1c0-2.8-0.6-5.1-1.9-6.9c-1.3-1.8-3.4-2.6-6.5-2.6c-2.4,0-4.4,0.8-6.2,2.3
		C207.8,69.4,206.7,71.8,206.1,75z"/>
	<path class="st1" d="M260.5,106.7c-3.1,0-5.7-0.5-7.9-1.4c-2.2-0.9-4-2.3-5.4-3.9c-1.4-1.7-2.4-3.7-3-6.1c-0.6-2.4-1-5-1-7.9V67
		h-6.9V56l7.7-0.6l1.7-13.3h12.3v13.3h12V67h-12v20.1c0,2.8,0.6,4.9,1.8,6.1c1.2,1.2,2.7,1.9,4.7,1.9c0.8,0,1.6-0.1,2.5-0.3
		c0.8-0.2,1.6-0.4,2.3-0.7l2.3,10.8c-1.3,0.4-2.9,0.8-4.7,1.2C265,106.5,262.9,106.7,260.5,106.7z"/>
	<path class="st1" d="M282.3,48c-2.5,0-4.5-0.7-6.2-2.2c-1.6-1.4-2.4-3.3-2.4-5.6c0-2.3,0.8-4.1,2.4-5.6c1.6-1.4,3.7-2.1,6.2-2.1
		c2.6,0,4.6,0.7,6.2,2.1c1.6,1.4,2.4,3.3,2.4,5.6c0,2.3-0.8,4.2-2.4,5.6C286.9,47.3,284.9,48,282.3,48z M274.9,105.5V55.4h14.8v50.1
		H274.9z"/>
	<path class="st1" d="M297.9,105.5V55.4H310l1,6.4h0.4c2.2-2,4.5-3.8,7.1-5.3c2.6-1.5,5.6-2.3,9-2.3c5.5,0,9.4,1.8,11.9,5.4
		c2.5,3.6,3.7,8.5,3.7,14.8v31.1h-14.8V76.3c0-3.6-0.5-6.1-1.5-7.5c-1-1.3-2.5-2-4.7-2c-1.9,0-3.5,0.4-4.8,1.3
		c-1.3,0.8-2.8,2-4.4,3.6v33.8H297.9z"/>
	<path class="st1" d="M368.5,106.7c-3.1,0-5.9-0.6-8.4-1.8c-2.5-1.2-4.7-2.9-6.5-5.2c-1.8-2.3-3.2-5-4.1-8.2c-1-3.2-1.5-6.9-1.5-11
		c0-4.1,0.6-7.8,1.8-11c1.2-3.2,2.7-6,4.6-8.2s4.1-4,6.7-5.2c2.5-1.2,5.1-1.8,7.7-1.8c2.8,0,5.2,0.5,7,1.4c1.8,0.9,3.6,2.2,5.4,3.8
		l-0.6-7.7V34.7h14.8v70.8h-12.1l-1-4.9h-0.4c-1.8,1.8-3.8,3.2-6.2,4.4C373.4,106.1,371,106.7,368.5,106.7z M372.4,94.6
		c1.6,0,3.1-0.3,4.4-1c1.3-0.7,2.6-1.9,3.8-3.5V69.6c-1.3-1.2-2.7-2.1-4.1-2.5c-1.4-0.5-2.8-0.7-4.1-0.7c-2.4,0-4.4,1.1-6.3,3.4
		c-1.8,2.3-2.7,5.8-2.7,10.6c0,5,0.8,8.6,2.4,10.9C367.3,93.5,369.5,94.6,372.4,94.6z"/>
	<path class="st1" d="M426,106.7c-3.6,0-6.9-0.6-10-1.8c-3.1-1.2-5.8-2.9-8.1-5.2c-2.3-2.3-4.1-5-5.4-8.2c-1.3-3.2-1.9-6.9-1.9-11.1
		c0-4,0.7-7.7,2-11c1.3-3.3,3.1-6,5.3-8.3c2.2-2.3,4.7-4,7.5-5.2s5.8-1.8,8.8-1.8c3.6,0,6.7,0.6,9.3,1.8c2.7,1.2,4.9,2.9,6.7,5
		c1.8,2.2,3.1,4.7,4,7.6c0.9,2.9,1.3,6.1,1.3,9.5c0,1.3-0.1,2.6-0.2,3.8c-0.1,1.2-0.3,2.1-0.4,2.7h-30c0.7,3.6,2.2,6.3,4.5,8
		s5.2,2.6,8.5,2.6c3.6,0,7.2-1.1,10.8-3.3l4.9,9c-2.6,1.8-5.4,3.1-8.5,4.1C432.1,106.2,429,106.7,426,106.7z M414.9,75H433
		c0-2.8-0.6-5.1-1.9-6.9c-1.3-1.8-3.4-2.6-6.5-2.6c-2.4,0-4.4,0.8-6.2,2.3C416.6,69.4,415.4,71.8,414.9,75z"/>
	<path class="st1" d="M451,105.5V55.4h12.1l1,8.8h0.4c1.8-3.4,4-6,6.6-7.6c2.6-1.6,5.1-2.4,7.7-2.4c1.4,0,2.6,0.1,3.5,0.3
		c0.9,0.2,1.7,0.4,2.5,0.8L482.3,68c-0.9-0.3-1.8-0.5-2.6-0.6c-0.8-0.1-1.8-0.2-2.8-0.2c-1.9,0-3.9,0.7-5.9,2
		c-2.1,1.3-3.8,3.7-5.1,7.2v29.1H451z"/>
</g>
<path class="st1" d="M70,11.5c-0.6-0.2-1.3,0.3-1.3,1.1c3.2,20.5-1,42.8-25.7,51.4h-0.4c-4.3-5.9-5.4-15.7-5.7-19.7
	c0-0.7-0.8-1.2-1.5-0.7C19,53.5,9.3,71.8,10.2,91.1c1.3,29.2,25.9,51.7,54.9,50.4c32.7,0,55.2-25.8,55.2-55
	C120.3,48.5,93.7,23.1,70,11.5z M66.8,78.4c2-9.5,7.9-12.2,12-10.8c5.4,1.9,6.8,9.4,5.5,15.9c-2,9.5-7.9,12.3-12.1,10.8
	C66.9,92.4,65.4,84.9,66.8,78.4z M52,67.6c1.9-0.7,3.9-0.4,5.8,0.6c3,1.7,5.3,5.5,6.3,10.2c1.3,6.5-0.1,14-5.5,15.8
	c-4.1,1.4-10.1-1.4-12.1-10.8C45.2,77,46.6,69.5,52,67.6z M42.3,103.6c-4.7,2.6-10.6-0.5-13.5-5.3c-3-5-2.7-11.6,2.1-14.3
	c4.3-2.4,10.3-0.1,13.5,5.3C48,95.3,46.4,101.3,42.3,103.6z M82,127.1c-5.6,2.7-11.2,4.1-16.8,4.1l0,0c-5.6,0-11.2-1.4-16.8-4.1l0,0
	c-2.7-1.3-4.4-4.1-4.4-7.1c0-11.4,9.5-20.8,21.2-20.8s21.2,9.3,21.2,20.8C86.4,123,84.6,125.8,82,127.1z M101.6,98.2
	c-3,4.9-8.8,7.9-13.5,5.3l0,0c-4.8-2.6-5.1-9.3-2.1-14.3c3.2-5.4,9.2-7.7,13.5-5.3C104.3,86.6,104.6,93.2,101.6,98.2z"/>
</svg>
